<svg xmlns="http://www.w3.org/2000/svg" viewBox="0 0 800 500" fill="none">
  <rect width="800" height="500" fill="#f6f6f3"/>
  <rect x="48" y="48" width="704" height="404" rx="24" fill="#fff" stroke="#e8e8e4" stroke-width="2"/>
  <rect x="48" y="48" width="704" height="56" rx="24" fill="#fafafa"/>
  <rect x="48" y="80" width="704" height="24" fill="#fff"/>
  <circle cx="80" cy="76" r="8" fill="#fca5a5"/>
  <circle cx="108" cy="76" r="8" fill="#fde047"/>
  <circle cx="136" cy="76" r="8" fill="#86efac"/>
  <rect x="88" y="140" width="280" height="24" rx="8" fill="#171717" opacity="0.9"/>
  <rect x="88" y="180" width="220" height="14" rx="6" fill="#9ca3af" opacity="0.5"/>
  <rect x="88" y="230" width="120" height="40" rx="20" fill="#22c55e"/>
  <rect x="220" y="230" width="120" height="40" rx="20" fill="#fff" stroke="#e8e8e4" stroke-width="2"/>
  <rect x="420" y="120" width="280" height="260" rx="20" fill="#ecfdf5" stroke="#bbf7d0" stroke-width="2"/>
  <rect x="452" y="152" width="216" height="120" rx="12" fill="#fff" stroke="#dcfce7"/>
  <path d="M472 212h176M472 192h120M472 232h96" stroke="#22c55e" stroke-width="8" stroke-linecap="round" opacity="0.35"/>
  <circle cx="560" cy="320" r="36" fill="#22c55e" opacity="0.2"/>
  <circle cx="620" cy="280" r="24" fill="#4ade80" opacity="0.35"/>
</svg>
